<?xml version="1.0" encoding="iso-8859-1"?>
<!-- Generator: Adobe Illustrator 19.0.0, SVG Export Plug-In . SVG Version: 6.00 Build 0)  -->
<svg version="1.1" id="Layer_1" xmlns="http://www.w3.org/2000/svg" xmlns:xlink="http://www.w3.org/1999/xlink" x="0px" y="0px"
	 viewBox="0 0 511.999 511.999" style="enable-background:new 0 0 511.999 511.999;" xml:space="preserve">
<g>
	<g>
		<path d="M480.875,389.536l-12.907-6.827c-33.92-18.027-63.509-33.451-97.451-40.277l-8.341-49.941
			C375.893,267.828,384,238.432,384,207.2v-38.635c0.064-0.043,0.128-0.085,0.192-0.149c13.419-11.115,21.141-27.755,21.141-45.675
			c0-64.512-47.083-117.461-106.667-122.496v63.509c0,11.776-9.557,21.333-21.333,21.333h-42.667
			c-11.797,0-21.333-9.557-21.333-21.333V0.245C153.728,5.28,106.667,58.229,106.667,122.74c0,17.92,7.701,34.56,21.12,45.675
			c0.064,0.064,0.128,0.085,0.213,0.149V207.2c0,31.232,8.107,60.629,21.803,85.291l-8.341,49.941
			c-33.941,6.827-63.531,22.251-97.451,40.277l-12.885,6.827C11.904,399.648,0,419.403,0,441.099v49.323
			c0,11.776,9.536,21.333,21.333,21.333h469.333c11.776,0,21.333-9.557,21.333-21.333v-49.323
			C512,419.403,500.075,399.648,480.875,389.536z M208.021,389.279l-26.368-28.523l4.053-24.256c2.24,1.835,4.715,3.115,7.04,4.757
			c1.749,1.237,3.52,2.453,5.312,3.584c3.541,2.219,7.104,4.309,10.795,6.101c3.861,1.92,7.787,3.627,11.819,5.077
			c1.109,0.405,2.155,1.045,3.285,1.408L208.021,389.279z M303.957,389.279l-15.936-31.851c1.131-0.363,2.176-1.003,3.285-1.408
			c4.032-1.451,7.979-3.157,11.84-5.077c3.691-1.792,7.232-3.883,10.773-6.101c1.792-1.131,3.563-2.347,5.312-3.584
			c2.325-1.643,4.8-2.923,7.04-4.757l4.053,24.256L303.957,389.279z M319.744,280.394c-2.581,3.883-5.312,7.445-8.171,10.795
			c-1.749,2.027-3.52,4.053-5.397,5.909c-1.685,1.685-3.413,3.307-5.184,4.821c-3.371,2.816-6.848,5.397-10.475,7.595
			c-1.28,0.789-2.603,1.472-3.904,2.155c-4.203,2.219-8.512,4.16-12.992,5.461c-0.704,0.192-1.408,0.299-2.112,0.469
			c-5.056,1.301-10.219,2.155-15.509,2.155c-5.312,0-10.475-0.853-15.531-2.155c-0.704-0.171-1.408-0.277-2.112-0.469
			c-4.48-1.301-8.789-3.243-12.992-5.461c-1.301-0.683-2.624-1.365-3.883-2.155c-3.648-2.197-7.125-4.779-10.496-7.595
			c-1.771-1.515-3.477-3.136-5.184-4.821c-1.877-1.856-3.648-3.883-5.397-5.909c-2.859-3.349-5.589-6.912-8.171-10.795
			c-13.205-19.883-21.568-45.419-21.568-73.195v-26.368c2.325-0.128,4.608-0.405,6.933-0.853
			c29.632-6.251,54.101-9.237,76.992-9.429c3.179-0.021,6.464-0.149,9.557-0.064c22.741,0.619,43.861,4.096,70.507,9.536
			c2.176,0.427,4.395,0.704,6.677,0.811V207.2h0.001C341.333,234.976,332.949,260.511,319.744,280.394z"/>
	</g>
</g>
<g>
</g>
<g>
</g>
<g>
</g>
<g>
</g>
<g>
</g>
<g>
</g>
<g>
</g>
<g>
</g>
<g>
</g>
<g>
</g>
<g>
</g>
<g>
</g>
<g>
</g>
<g>
</g>
<g>
</g>
</svg>
