<?xml version="1.0" encoding="iso-8859-1"?>
<!-- Generator: Adobe Illustrator 19.0.0, SVG Export Plug-In . SVG Version: 6.00 Build 0)  -->
<svg version="1.1" id="Layer_1" xmlns="http://www.w3.org/2000/svg" xmlns:xlink="http://www.w3.org/1999/xlink" x="0px" y="0px"
	 viewBox="0 0 263.782 263.782" style="enable-background:new 0 0 263.782 263.782;" xml:space="preserve">
<g>
	<g>
		<path d="M193.773,61.726h-15.314V19.839C178.458,8.901,169.56,0,158.62,0h-53.456C94.226,0,85.325,8.901,85.325,19.839v41.887
			H70.012c-13.2,0-23.937,10.74-23.937,23.937v130.8c0,11.734,8.493,21.504,19.647,23.534v12.984
			c0,5.956,4.845,10.801,10.799,10.801h19.811c5.956,0,10.801-4.845,10.801-10.801v-12.576h49.517v12.576
			c0,5.956,4.845,10.801,10.799,10.801h19.811c5.956,0,10.801-4.845,10.801-10.801v-12.984c11.158-2.03,19.647-11.8,19.647-23.534
			v-130.8C217.71,72.466,206.973,61.726,193.773,61.726z M98.551,19.839c0-3.646,2.967-6.613,6.613-6.613h53.456
			c3.646,0,6.613,2.967,6.613,6.613v41.887H98.551V19.839z M93.906,250.556H78.945v-10.151h14.961V250.556z M184.837,250.556
			h-14.961v-10.151h14.961V250.556z M204.484,216.464c0,5.908-4.805,10.713-10.711,10.713H70.009
			c-5.908,0-10.711-4.808-10.711-10.713v-130.8c0-5.908,4.806-10.711,10.711-10.711h123.764c5.908,0,10.711,4.806,10.711,10.711
			V216.464z"/>
	</g>
</g>
<g>
</g>
<g>
</g>
<g>
</g>
<g>
</g>
<g>
</g>
<g>
</g>
<g>
</g>
<g>
</g>
<g>
</g>
<g>
</g>
<g>
</g>
<g>
</g>
<g>
</g>
<g>
</g>
<g>
</g>
</svg>
